<?xml version="1.0" standalone="no"?>
<!DOCTYPE svg PUBLIC "-//W3C//DTD SVG 20010904//EN"
 "http://www.w3.org/TR/2001/REC-SVG-20010904/DTD/svg10.dtd">
<svg version="1.0" xmlns="http://www.w3.org/2000/svg"
 width="260.000000pt" height="260.000000pt" viewBox="0 0 260.000000 260.000000"
 preserveAspectRatio="xMidYMid meet">
<metadata>
Created by potrace 1.14, written by Peter Selinger 2001-2017
</metadata>
<g transform="translate(0.000000,260.000000) scale(0.100000,-0.100000)"
fill="#000000" stroke="none">
<path d="M1120 2565 c-99 -15 -190 -37 -269 -68 -31 -11 -59 -20 -63 -19 -5 1
-8 -3 -8 -9 0 -5 -4 -8 -9 -5 -4 3 -48 -18 -97 -46 -365 -209 -588 -536 -649
-953 -19 -126 -19 -214 0 -340 51 -350 218 -640 485 -844 82 -63 206 -139 236
-145 10 -3 45 -16 77 -30 174 -78 423 -112 628 -85 471 61 862 353 1034 774
88 214 121 440 95 642 -56 430 -281 768 -654 981 -49 28 -93 49 -97 46 -5 -3
-9 0 -9 7 0 7 -3 10 -6 6 -4 -3 -19 0 -34 8 -49 25 -202 66 -305 80 -120 17
-239 17 -355 0z m-147 -729 c75 -31 110 -109 152 -337 27 -151 74 -297 140
-437 l44 -92 -40 -26 c-22 -14 -51 -29 -65 -34 -39 -15 -112 -12 -140 6 -32
21 -67 83 -90 157 -10 31 -22 57 -28 57 -6 0 -31 -7 -55 -16 -35 -12 -67 -14
-145 -8 l-101 6 -21 -43 c-62 -125 -122 -168 -235 -169 -107 0 -109 20 -20
139 23 30 41 57 41 60 0 3 -14 14 -30 23 -38 22 -38 43 0 95 33 45 82 73 128
73 29 0 35 7 103 133 40 72 96 173 124 223 l53 91 -21 37 c-15 26 -18 39 -10
47 28 28 163 37 216 15z m1066 5 c40 -25 -38 -91 -149 -126 -103 -33 -177
-103 -230 -218 -84 -180 -47 -437 68 -472 94 -28 222 103 250 255 14 75 1 143
-42 228 -20 39 -36 80 -36 91 0 39 130 131 185 131 122 0 144 -323 37 -540
-47 -96 -160 -212 -247 -255 -56 -28 -68 -30 -175 -30 -106 0 -120 2 -177 29
-191 88 -230 277 -109 521 96 193 252 326 438 375 79 20 164 25 187 11z"/>
<path d="M793 1436 c-29 -62 -55 -120 -59 -129 -5 -15 4 -17 84 -17 l89 0 -23
113 c-13 61 -28 119 -32 129 -5 11 -22 -15 -59 -96z"/>
</g>
</svg>
